<svg width="15" height="25" viewBox="0 0 15 25" version="1.1" xmlns="http://www.w3.org/2000/svg" xmlns:xlink="http://www.w3.org/1999/xlink">
<g id="Canvas" fill="none">
<g id="Group 2.2">
<g id="assignments-completed 2">
<g id="Vector">
<path d="M 6.58172 0L 0 0L 0 19.0143L 6.58172 19.0143L 6.58172 0Z" transform="matrix(0.897582 0.440848 -0.440848 0.897582 8.64258 1.51758)" fill="#2F7A4D"/>
</g>
<g id="Vector_2">
<path d="M 0.535702 6.37354L 5.90752 2.9015L -6.64565e-07 6.114e-07L 0.535702 6.37354Z" transform="translate(0.259766 18.5859)" fill="#E8EDAE"/>
</g>
<g id="Vector_3">
<path d="M 0.135014 1.60623L 1.48864 0.730818L -2.79117e-07 7.1773e-07L 0.135014 1.60623Z" transform="translate(0.662109 23.3516)" fill="#242424"/>
</g>
<g id="Vector_4">
<path d="M 1.58968 -2.39243e-07L 6.64565e-07 0.849283L 1.88933 1.77696L 1.58968 -2.39243e-07Z" transform="translate(0.390625 17.8008)" fill="#E8EDAE"/>
</g>
<g id="Vector_5">
<path d="M 1.58968 2.25952e-07L -4.51904e-07 0.849283L 1.88933 1.77696L 1.58968 2.25952e-07Z" transform="translate(2.28125 18.7285)" fill="#E8EDAE"/>
</g>
<g id="Vector_6">
<path d="M 1.58968 -2.12661e-07L 4.25322e-07 0.849283L 1.88933 1.77696L 1.58968 -2.12661e-07Z" transform="translate(4.14648 19.6465)" fill="#E8EDAE"/>
</g>
<g id="Vector_7">
<path d="M 1.64282 4.65196e-08L 4.9389 4.65196e-08C 5.37461 4.65196e-08 5.79246 0.173082 6.10055 0.48117C 6.40864 0.789258 6.58172 1.20711 6.58172 1.64282L 6.58172 1.73689L -1.56837e-06 1.73689L -1.56837e-06 1.64282C -1.56837e-06 1.20711 0.173082 0.789258 0.48117 0.48117C 0.789258 0.173082 1.20711 4.65196e-08 1.64282 4.65196e-08L 1.64282 4.65196e-08Z" transform="matrix(0.897582 0.440848 -0.440848 0.897582 9.4082 -0.0410156)" fill="#BF5858"/>
</g>
</g>
</g>
</g>
</svg>

