<svg width="116" height="144" viewBox="0 0 116 144" version="1.1" xmlns="http://www.w3.org/2000/svg" xmlns:xlink="http://www.w3.org/1999/xlink">
<g id="Canvas" fill="none">
<g id="Group 2">
<g id="Vector 3.7">
<path d="M 0.895289 95.6234C 7.04083 85.9512 8.57721 27.8444 8.57721 0L 28.3307 0C 22.1852 10.5515 30.8914 74.0073 36.0126 104.416C 21.7462 105.515 -5.25025 105.296 0.895289 95.6234Z" transform="translate(40.043 39.0547)" fill="#855A5A"/>
</g>
<g id="Vector 3.8">
<path d="M 0.282465 49.5364C 2.2214 44.5259 2.70613 14.4244 2.70613 0L 8.9384 0C 6.99947 5.46607 9.74628 38.3385 11.3621 54.0915C 6.86097 54.6608 -1.65646 54.547 0.282465 49.5364Z" transform="matrix(0.520469 -0.85388 0.853882 0.520467 8.26758 75.4043)" fill="#855A5A"/>
</g>
<g id="Vector 3.9">
<path d="M 0.282466 49.5364C 2.2214 44.5258 2.70613 14.4244 2.70613 0L 8.93841 0C 6.99948 5.46606 9.7463 38.3384 11.3621 54.0914C 6.86098 54.6608 -1.65647 54.5469 0.282466 49.5364Z" transform="matrix(0.792038 0.610472 -0.610475 0.792036 88.1387 61.5)" fill="#855A5A"/>
</g>
<g id="Vector 4.7">
<path d="M 0.0259366 28.7236C -0.858912 14.414 21.1908 0 21.1908 0C 21.1908 0 40.1485 14.414 39.3321 28.7236C 38.5156 43.0333 21.1908 58.959 21.1908 58.959C 21.1908 58.959 0.910785 43.0333 0.0259366 28.7236Z" transform="translate(38.3711 0.675781)" fill="#44A66B"/>
</g>
<g id="Vector 4.8">
<path d="M 0.0259365 28.7237C -0.85891 14.414 21.1907 0 21.1907 0C 21.1907 0 40.1485 14.414 39.332 28.7237C 38.5155 43.0333 21.1907 58.9591 21.1907 58.9591C 21.1907 58.9591 0.910783 43.0333 0.0259365 28.7237Z" transform="matrix(0.734999 0.678069 -0.678071 0.734996 99.3535 23.5156)" fill="#44A66B"/>
</g>
<g id="Vector 4.9">
<path d="M 0.0169826 22.1043C -0.562395 11.0923 13.8752 0 13.8752 0C 13.8752 0 26.2883 11.0923 25.7537 22.1043C 25.2191 33.1163 13.8752 45.372 13.8752 45.372C 13.8752 45.372 0.59636 33.1163 0.0169826 22.1043Z" transform="matrix(-0.707108 0.707105 -0.707108 -0.707105 42.8242 80.2363)" fill="#44A66B"/>
</g>
</g>
</g>
</svg>

