<svg width="102" height="139" viewBox="0 0 102 139" version="1.1" xmlns="http://www.w3.org/2000/svg" xmlns:xlink="http://www.w3.org/1999/xlink">
<title>Group 5</title>
<desc>Created using Figma</desc>
<g id="Canvas" transform="translate(-22907 -5995)">
<g id="Group 5">
<g id="Ellipse 3.1">
<use xlink:href="#path0_fill" transform="translate(22917.5 6120.27)" fill="#BF5858"/>
</g>
<g id="Vector 2">
<use xlink:href="#path1_fill" transform="translate(22907.4 6073.05)" fill="#BF5858"/>
</g>
<g id="Ellipse 3">
<use xlink:href="#path2_fill" transform="translate(22907.4 6064.54)" fill="#8C4E3B"/>
</g>
<g id="Vector">
<use xlink:href="#path3_fill" transform="matrix(0.707107 -0.707107 0.707107 0.707107 22932.2 6009.43)" fill="#2F7A4D"/>
</g>
<g id="Vector 2">
<use xlink:href="#path4_fill" transform="translate(22953.2 6000.96)" fill="#F29274"/>
</g>
<g id="Rectangle 8">
<use xlink:href="#path5_fill" transform="translate(22953.2 6006.48)" fill="#77BD93"/>
</g>
<g id="Rectangle 8.2">
<use xlink:href="#path6_fill" transform="translate(22953.2 6000.96)" fill="#E09B9B"/>
</g>
<g id="Rectangle 8.1">
<use xlink:href="#path5_fill" transform="translate(22953.2 6010.54)" fill="#77BD93"/>
</g>
<g id="Vector">
<use xlink:href="#path3_fill" transform="matrix(0.783352 0.621578 -0.621578 0.783352 22968.6 6003.72)" fill="#459666"/>
</g>
</g>
</g>
<defs>
<path id="path0_fill" d="M 80.753 6.72941C 80.753 10.446 62.6758 13.4588 40.3765 13.4588C 18.0772 13.4588 0 10.446 0 6.72941C 0 3.01286 18.0772 0 40.3765 0C 62.6758 0 80.753 3.01286 80.753 6.72941Z"/>
<path id="path1_fill" d="M 10.0888 54.4327L 0 0.168862L 100.824 0L 90.7354 54.2428L 10.0888 54.4327Z"/>
<path id="path2_fill" d="M 100.941 8.41177C 100.941 13.0575 78.3447 16.8235 50.4706 16.8235C 22.5965 16.8235 0 13.0575 0 8.41177C 0 3.76608 22.5965 0 50.4706 0C 78.3447 0 100.941 3.76608 100.941 8.41177Z"/>
<path id="path3_fill" d="M 0.00540764 16.6206C -0.202336 13.9331 5.63186 5.77597 7.79587 3.18268L 9.87332 0C 10.5658 1.06089 15.846 5.30446 16.1057 8.13351C 16.3653 10.9626 18.4428 12.7307 19.7412 16.6206C 21.0396 20.5106 14.0282 27.76 9.87332 26.3455C 5.71842 24.931 0.265087 19.9801 0.00540764 16.6206Z"/>
<path id="path4_fill" d="M 0 0L 0 72.0991L 9.36567 72.0991L 9.36567 0L 0 0Z"/>
<path id="path5_fill" d="M 0 0L 9.36567 0L 9.36567 2.47396L 0 2.47396L 0 0Z"/>
<path id="path6_fill" d="M 0 0L 9.36567 0L 9.36567 5.52022L 0 5.52022L 0 0Z"/>
</defs>
</svg>
