<svg width="1025" height="921" viewBox="0 0 1025 921" version="1.1" xmlns="http://www.w3.org/2000/svg" xmlns:xlink="http://www.w3.org/1999/xlink">
<g id="Canvas" fill="none">
<g id="Group 2">
<g id="Rectangle 4">
<rect width="1024" height="920.846" transform="translate(0.696289 0.153809)" fill="url(#paint0_linear)"/>
</g>
<g id="Group">
<g id="Rectangle">
<rect width="198.152" height="12.6031" rx="6.30153" transform="translate(727.643 197.368)" fill="white"/>
</g>
<g id="Rectangle_2">
<rect width="198.152" height="12.6031" rx="6.30153" transform="translate(751.9 217.406)" fill="white"/>
</g>
<g id="Rectangle_3">
<rect width="20.1493" height="33.4388" rx="10.0746" transform="matrix(-1.03736e-07 1 -1 -1.84187e-08 820.545 204.074)" fill="white"/>
</g>
<g id="Rectangle_4">
<rect width="20.1493" height="33.4388" rx="10.0746" transform="matrix(-1.03736e-07 1 -1 -1.84187e-08 898.592 204.074)" fill="white"/>
</g>
</g>
<g id="Group_2">
<g id="Rectangle_5">
<rect width="83.4957" height="12.6031" rx="6.30153" transform="translate(685.895 51.2725)" fill="white"/>
</g>
<g id="Rectangle_6">
<rect width="83.4957" height="12.6031" rx="6.30153" transform="translate(696.116 71.3105)" fill="white"/>
</g>
<g id="Rectangle_7">
<rect width="20.1493" height="14.0902" rx="7.04509" transform="matrix(-4.37114e-08 1 -1 -4.37114e-08 725.041 57.9785)" fill="white"/>
</g>
<g id="Rectangle_8">
<rect width="20.1493" height="14.0902" rx="7.04509" transform="matrix(-4.37114e-08 1 -1 -4.37114e-08 757.928 57.9785)" fill="white"/>
</g>
</g>
<g id="Group_3">
<g id="Rectangle_9">
<rect width="83.4957" height="12.6031" rx="6.30153" transform="translate(60.3379 83.9141)" fill="white"/>
</g>
<g id="Rectangle_10">
<rect width="83.4957" height="12.6031" rx="6.30153" transform="translate(70.5596 103.952)" fill="white"/>
</g>
<g id="Rectangle_11">
<rect width="20.1493" height="14.0902" rx="7.04509" transform="matrix(-4.37114e-08 1 -1 -4.37114e-08 99.4844 90.6201)" fill="white"/>
</g>
<g id="Rectangle_12">
<rect width="20.1493" height="14.0902" rx="7.04509" transform="matrix(-4.37114e-08 1 -1 -4.37114e-08 132.371 90.6201)" fill="white"/>
</g>
</g>
<g id="Vector 5.6">
<path d="M 0 205.121C 166.387 61.0752 438.454 6.71854 539.011 0L 539.011 205.121L 0 205.121Z" transform="translate(539.7 715.879) scale(-1 1)" fill="#195431"/>
</g>
<g id="Vector 5">
<path d="M 0 204.296C 334.307 57.3125 821.966 6.85557 1024.01 0L 1024.01 204.296L 0 204.296Z" transform="translate(0.689453 716.704)" fill="#2F7A4D"/>
</g>
<g id="Group_4">
<g id="Rectangle_13">
<rect width="198.152" height="12.6031" rx="6.30153" transform="translate(727.643 197.368)" fill="white"/>
</g>
<g id="Rectangle_14">
<rect width="198.152" height="12.6031" rx="6.30153" transform="translate(751.9 217.406)" fill="white"/>
</g>
<g id="Rectangle_15">
<rect width="20.1493" height="33.4388" rx="10.0746" transform="matrix(-1.03736e-07 1 -1 -1.84187e-08 820.545 204.074)" fill="white"/>
</g>
<g id="Rectangle_16">
<rect width="20.1493" height="33.4388" rx="10.0746" transform="matrix(-1.03736e-07 1 -1 -1.84187e-08 898.592 204.074)" fill="white"/>
</g>
</g>
<g id="Group_5">
<g id="Rectangle_17">
<rect width="211.969" height="12.6031" rx="6.30153" transform="translate(0.696289 325.446)" fill="white"/>
</g>
<g id="Rectangle_18">
<rect width="211.969" height="12.6031" rx="6.30153" transform="translate(26.6455 345.484)" fill="white"/>
</g>
<g id="Rectangle_19">
<rect width="20.1493" height="35.7705" rx="10.0746" transform="matrix(-1.10969e-07 1 -1 -1.72181e-08 100.077 332.152)" fill="white"/>
</g>
<g id="Rectangle_20">
<rect width="20.1493" height="35.7705" rx="10.0746" transform="matrix(-1.10969e-07 1 -1 -1.72181e-08 183.564 332.152)" fill="white"/>
</g>
</g>
<g id="Group_6">
<g id="Rectangle_21">
<rect width="83.4957" height="12.6031" rx="6.30153" transform="translate(685.895 51.2725)" fill="white"/>
</g>
<g id="Rectangle_22">
<rect width="83.4957" height="12.6031" rx="6.30153" transform="translate(696.116 71.3105)" fill="white"/>
</g>
<g id="Rectangle_23">
<rect width="20.1493" height="14.0902" rx="7.04509" transform="matrix(-4.37114e-08 1 -1 -4.37114e-08 725.041 57.9785)" fill="white"/>
</g>
<g id="Rectangle_24">
<rect width="20.1493" height="14.0902" rx="7.04509" transform="matrix(-4.37114e-08 1 -1 -4.37114e-08 757.928 57.9785)" fill="white"/>
</g>
</g>
<g id="Group_7">
<g id="Rectangle_25">
<rect width="83.4957" height="12.6031" rx="6.30153" transform="translate(60.3379 83.9141)" fill="white"/>
</g>
<g id="Rectangle_26">
<rect width="83.4957" height="12.6031" rx="6.30153" transform="translate(70.5596 103.952)" fill="white"/>
</g>
<g id="Rectangle_27">
<rect width="20.1493" height="14.0902" rx="7.04509" transform="matrix(-4.37114e-08 1 -1 -4.37114e-08 99.4844 90.6201)" fill="white"/>
</g>
<g id="Rectangle_28">
<rect width="20.1493" height="14.0902" rx="7.04509" transform="matrix(-4.37114e-08 1 -1 -4.37114e-08 132.371 90.6201)" fill="white"/>
</g>
</g>
</g>
</g>
<defs>

<linearGradient id="paint0_linear" x2="1" gradientUnits="userSpaceOnUse" gradientTransform="matrix(0 920.846 -1024 0 1024 0)">
<stop stop-color="#68B0B0"/>
<stop offset="0.662983" stop-color="#C9F2F2"/>
</linearGradient>

</defs>
</svg>

