<svg width="35" height="33" viewBox="0 0 35 33" version="1.1" xmlns="http://www.w3.org/2000/svg" xmlns:xlink="http://www.w3.org/1999/xlink">
<g id="Canvas" fill="none">
<g id="Star">
<path d="M 19.0489 2.92705C 19.3483 2.00574 20.6517 2.00574 20.9511 2.92705L 24.2658 13.1287C 24.3996 13.5407 24.7836 13.8197 25.2168 13.8197L 35.9434 13.8197C 36.9122 13.8197 37.3149 15.0593 36.5312 15.6287L 27.8532 21.9336C 27.5027 22.1883 27.3561 22.6396 27.4899 23.0517L 30.8046 33.2533C 31.104 34.1746 30.0495 34.9407 29.2658 34.3713L 20.5878 28.0664C 20.2373 27.8117 19.7627 27.8117 19.4122 28.0664L 10.7342 34.3713C 9.95048 34.9407 8.896 34.1746 9.19535 33.2533L 12.5101 23.0517C 12.6439 22.6396 12.4973 22.1883 12.1468 21.9336L 3.46877 15.6287C 2.68505 15.0593 3.08783 13.8197 4.05655 13.8197L 14.7832 13.8197C 15.2164 13.8197 15.6004 13.5407 15.7342 13.1287L 19.0489 2.92705Z" transform="translate(-2.24023 -2.04102)" fill="#F5C64E"/>
</g>
</g>
</svg>

